<svg width="14" height="18" viewBox="0 0 14 18" fill="none" xmlns="http://www.w3.org/2000/svg">
<path d="M8.45837 0.666672H5.54171C5.08051 0.666686 4.63549 0.836678 4.29174 1.14415C3.94799 1.45162 3.72962 1.875 3.67837 2.33334H2.20837C1.71109 2.33334 1.23418 2.53088 0.882549 2.88251C0.530918 3.23414 0.333374 3.71106 0.333374 4.20834V15.4583C0.333374 15.9556 0.530918 16.4325 0.882549 16.7842C1.23418 17.1358 1.71109 17.3333 2.20837 17.3333H11.7917C12.0379 17.3333 12.2818 17.2848 12.5092 17.1906C12.7367 17.0964 12.9434 16.9583 13.1175 16.7842C13.2916 16.6101 13.4298 16.4034 13.524 16.1759C13.6182 15.9484 13.6667 15.7046 13.6667 15.4583V4.20834C13.6667 3.96211 13.6182 3.71829 13.524 3.49081C13.4298 3.26332 13.2916 3.05662 13.1175 2.88251C12.9434 2.7084 12.7367 2.57029 12.5092 2.47606C12.2818 2.38184 12.0379 2.33334 11.7917 2.33334H10.3217C10.2705 1.875 10.0521 1.45162 9.70834 1.14415C9.36458 0.836678 8.91957 0.666686 8.45837 0.666672ZM5.54171 1.91667H8.45837C8.62413 1.91667 8.7831 1.98252 8.90031 2.09973C9.01752 2.21694 9.08337 2.37591 9.08337 2.54167C9.08337 2.70743 9.01752 2.8664 8.90031 2.98361C8.7831 3.10082 8.62413 3.16667 8.45837 3.16667H5.54171C5.37595 3.16667 5.21698 3.10082 5.09977 2.98361C4.98255 2.8664 4.91671 2.70743 4.91671 2.54167C4.91671 2.37591 4.98255 2.21694 5.09977 2.09973C5.21698 1.98252 5.37595 1.91667 5.54171 1.91667ZM11.4 6.26667C11.5171 6.38386 11.5828 6.54271 11.5828 6.70834C11.5828 6.87396 11.5171 7.03282 11.4 7.15001L9.73337 8.81667C9.61618 8.93371 9.45733 8.99946 9.29171 8.99946C9.12608 8.99946 8.96723 8.93371 8.85004 8.81667L8.01671 7.98334C7.9553 7.92612 7.90605 7.85712 7.87189 7.78045C7.83773 7.70379 7.81936 7.62103 7.81788 7.53711C7.8164 7.45319 7.83184 7.36983 7.86327 7.29201C7.8947 7.21418 7.94149 7.14349 8.00084 7.08414C8.06019 7.02479 8.13088 6.978 8.20871 6.94657C8.28653 6.91514 8.36989 6.8997 8.45381 6.90118C8.53773 6.90266 8.62049 6.92103 8.69715 6.95519C8.77382 6.98935 8.84282 7.0386 8.90004 7.10001L9.29171 7.49167L10.5167 6.26667C10.6339 6.14963 10.7927 6.08389 10.9584 6.08389C11.124 6.08389 11.2829 6.14963 11.4 6.26667ZM11.4 11.7333L9.73337 13.4C9.61618 13.517 9.45733 13.5828 9.29171 13.5828C9.12608 13.5828 8.96723 13.517 8.85004 13.4L8.01671 12.5667C7.9553 12.5095 7.90605 12.4405 7.87189 12.3638C7.83773 12.2871 7.81936 12.2044 7.81788 12.1204C7.8164 12.0365 7.83184 11.9532 7.86327 11.8753C7.8947 11.7975 7.94149 11.7268 8.00084 11.6675C8.06019 11.6081 8.13088 11.5613 8.20871 11.5299C8.28653 11.4985 8.36989 11.483 8.45381 11.4845C8.53773 11.486 8.62049 11.5044 8.69715 11.5385C8.77382 11.5727 8.84282 11.6219 8.90004 11.6833L9.29171 12.075L10.5167 10.85C10.5739 10.7886 10.6429 10.7393 10.7196 10.7052C10.7963 10.671 10.879 10.6527 10.9629 10.6512C11.0469 10.6497 11.1302 10.6651 11.208 10.6966C11.2859 10.728 11.3566 10.7748 11.4159 10.8341C11.4753 10.8935 11.522 10.9642 11.5535 11.042C11.5849 11.1198 11.6003 11.2032 11.5989 11.2871C11.5974 11.371 11.579 11.4538 11.5449 11.5305C11.5107 11.6071 11.4614 11.6761 11.4 11.7333ZM2.83337 7.54167C2.83337 7.37591 2.89922 7.21694 3.01643 7.09973C3.13364 6.98252 3.29261 6.91667 3.45837 6.91667H6.37504C6.5408 6.91667 6.69977 6.98252 6.81698 7.09973C6.93419 7.21694 7.00004 7.37591 7.00004 7.54167C7.00004 7.70743 6.93419 7.8664 6.81698 7.98361C6.69977 8.10082 6.5408 8.16667 6.37504 8.16667H3.45837C3.29261 8.16667 3.13364 8.10082 3.01643 7.98361C2.89922 7.8664 2.83337 7.70743 2.83337 7.54167ZM3.45837 11.5H6.37504C6.5408 11.5 6.69977 11.5659 6.81698 11.6831C6.93419 11.8003 7.00004 11.9592 7.00004 12.125C7.00004 12.2908 6.93419 12.4497 6.81698 12.5669C6.69977 12.6842 6.5408 12.75 6.37504 12.75H3.45837C3.29261 12.75 3.13364 12.6842 3.01643 12.5669C2.89922 12.4497 2.83337 12.2908 2.83337 12.125C2.83337 11.9592 2.89922 11.8003 3.01643 11.6831C3.13364 11.5659 3.29261 11.5 3.45837 11.5Z" fill="current" fill-opacity="0.79"/>
</svg>
