<svg width="18" height="18" viewBox="0 0 18 18" fill="none" xmlns="http://www.w3.org/2000/svg">
<path d="M14.8334 2.33329H13.1667V1.49996C13.1667 1.27895 13.0789 1.06698 12.9226 0.910704C12.7663 0.754423 12.5544 0.666626 12.3334 0.666626C12.1123 0.666626 11.9004 0.754423 11.7441 0.910704C11.5878 1.06698 11.5 1.27895 11.5 1.49996V2.33329H6.50002V1.49996C6.50002 1.27895 6.41222 1.06698 6.25594 0.910704C6.09966 0.754423 5.8877 0.666626 5.66669 0.666626C5.44567 0.666626 5.23371 0.754423 5.07743 0.910704C4.92115 1.06698 4.83335 1.27895 4.83335 1.49996V2.33329H3.16669C2.50365 2.33329 1.86776 2.59668 1.39892 3.06553C0.930079 3.53437 0.666687 4.17025 0.666687 4.83329V14.8333C0.666687 15.4963 0.930079 16.1322 1.39892 16.6011C1.86776 17.0699 2.50365 17.3333 3.16669 17.3333H14.8334C15.4964 17.3333 16.1323 17.0699 16.6011 16.6011C17.07 16.1322 17.3334 15.4963 17.3334 14.8333V4.83329C17.3334 4.17025 17.07 3.53437 16.6011 3.06553C16.1323 2.59668 15.4964 2.33329 14.8334 2.33329ZM15.6667 14.8333C15.6667 15.0543 15.5789 15.2663 15.4226 15.4225C15.2663 15.5788 15.0544 15.6666 14.8334 15.6666H3.16669C2.94567 15.6666 2.73371 15.5788 2.57743 15.4225C2.42115 15.2663 2.33335 15.0543 2.33335 14.8333V8.99996H15.6667V14.8333ZM15.6667 7.33329H2.33335V4.83329C2.33335 4.61228 2.42115 4.40032 2.57743 4.24404C2.73371 4.08776 2.94567 3.99996 3.16669 3.99996H4.83335V4.83329C4.83335 5.05431 4.92115 5.26627 5.07743 5.42255C5.23371 5.57883 5.44567 5.66663 5.66669 5.66663C5.8877 5.66663 6.09966 5.57883 6.25594 5.42255C6.41222 5.26627 6.50002 5.05431 6.50002 4.83329V3.99996H11.5V4.83329C11.5 5.05431 11.5878 5.26627 11.7441 5.42255C11.9004 5.57883 12.1123 5.66663 12.3334 5.66663C12.5544 5.66663 12.7663 5.57883 12.9226 5.42255C13.0789 5.26627 13.1667 5.05431 13.1667 4.83329V3.99996H14.8334C15.0544 3.99996 15.2663 4.08776 15.4226 4.24404C15.5789 4.40032 15.6667 4.61228 15.6667 4.83329V7.33329Z" fill="black"/>
</svg>
