<svg width="18" height="16" viewBox="0 0 18 16" fill="none" xmlns="http://www.w3.org/2000/svg">
<path d="M10.6041 0.0859375C10.9308 0.0859113 11.2519 0.17125 11.5354 0.333498C11.819 0.495746 12.0553 0.729272 12.2208 1.01094L12.8991 2.16677H14.625C14.9806 2.16677 15.3328 2.23682 15.6614 2.37293C15.99 2.50904 16.2885 2.70853 16.54 2.96002C16.7915 3.21152 16.991 3.51008 17.1271 3.83867C17.2632 4.16726 17.3333 4.51944 17.3333 4.8751V12.7918C17.3333 13.1474 17.2632 13.4996 17.1271 13.8282C16.991 14.1568 16.7915 14.4554 16.54 14.7069C16.2885 14.9583 15.99 15.1578 15.6614 15.2939C15.3328 15.4301 14.9806 15.5001 14.625 15.5001H3.37496C2.65666 15.5001 1.96779 15.2148 1.45988 14.7069C0.951967 14.1989 0.666626 13.5101 0.666626 12.7918V4.8751C0.666626 4.15681 0.951967 3.46793 1.45988 2.96002C1.96779 2.45211 2.65666 2.16677 3.37496 2.16677H5.10829L5.83746 0.980104C6.00512 0.706954 6.23999 0.481339 6.51966 0.3248C6.79933 0.16826 7.11446 0.0860223 7.43496 0.0859375H10.6041ZM8.99996 4.66677C8.0054 4.66677 7.05157 5.06186 6.34831 5.76512C5.64505 6.46838 5.24996 7.42221 5.24996 8.41677C5.24996 9.41133 5.64505 10.3652 6.34831 11.0684C7.05157 11.7717 8.0054 12.1668 8.99996 12.1668C9.99452 12.1668 10.9483 11.7717 11.6516 11.0684C12.3549 10.3652 12.75 9.41133 12.75 8.41677C12.75 7.42221 12.3549 6.46838 11.6516 5.76512C10.9483 5.06186 9.99452 4.66677 8.99996 4.66677ZM8.99996 5.91677C9.32826 5.91677 9.65335 5.98143 9.95667 6.10707C10.26 6.23271 10.5356 6.41686 10.7677 6.649C10.9999 6.88115 11.184 7.15675 11.3097 7.46006C11.4353 7.76338 11.5 8.08847 11.5 8.41677C11.5 8.74508 11.4353 9.07016 11.3097 9.37348C11.184 9.67679 10.9999 9.95239 10.7677 10.1845C10.5356 10.4167 10.26 10.6008 9.95667 10.7265C9.65335 10.8521 9.32826 10.9168 8.99996 10.9168C8.33692 10.9168 7.70103 10.6534 7.23219 10.1845C6.76335 9.7157 6.49996 9.07981 6.49996 8.41677C6.49996 7.75373 6.76335 7.11784 7.23219 6.649C7.70103 6.18016 8.33692 5.91677 8.99996 5.91677Z" fill="black"/>
</svg>
