<svg width="18" height="13" viewBox="0 0 18 13" fill="none" xmlns="http://www.w3.org/2000/svg">
<path d="M8.31501 0.692509C8.39146 0.581474 8.49375 0.490688 8.61308 0.427971C8.73241 0.365252 8.8652 0.332482 9.00001 0.332482C9.13482 0.332482 9.2676 0.365252 9.38693 0.427971C9.50626 0.490688 9.60856 0.581474 9.68501 0.692509L17.185 11.5258C17.2718 11.6508 17.3227 11.7972 17.3322 11.949C17.3417 12.1009 17.3094 12.2524 17.2387 12.3872C17.1681 12.522 17.0619 12.6348 16.9317 12.7135C16.8015 12.7921 16.6522 12.8336 16.5 12.8333H1.50001C1.34821 12.8327 1.19946 12.7907 1.06974 12.7119C0.940028 12.633 0.834261 12.5203 0.763816 12.3858C0.693371 12.2514 0.660913 12.1003 0.669933 11.9487C0.678953 11.7972 0.729109 11.651 0.815008 11.5258L8.31501 0.692509Z" fill="white"/>
</svg>
