<svg width="20" height="20" viewBox="0 0 20 20" fill="none" xmlns="http://www.w3.org/2000/svg">
<path d="M18.3333 16.6667V10.145C18.3333 9.69131 18.2408 9.24235 18.0612 8.82566C17.8817 8.40896 17.6189 8.03331 17.2891 7.72171L11.145 1.91504C10.8355 1.62248 10.4258 1.45947 9.99996 1.45947C9.57411 1.45947 9.16441 1.62248 8.85496 1.91504L2.71079 7.72171C2.38098 8.03331 2.11825 8.40896 1.93871 8.82566C1.75916 9.24235 1.66658 9.69131 1.66663 10.145V16.6667C1.66663 17.1087 1.84222 17.5327 2.15478 17.8452C2.46734 18.1578 2.89127 18.3334 3.33329 18.3334H16.6666C17.1087 18.3334 17.5326 18.1578 17.8451 17.8452C18.1577 17.5327 18.3333 17.1087 18.3333 16.6667Z" stroke="current" stroke-width="2" stroke-linecap="round" stroke-linejoin="round"/>
</svg>
