<svg width="15" height="15" viewBox="0 0 15 15" fill="none" xmlns="http://www.w3.org/2000/svg">
<path d="M7.50001 8.57412C7.69893 8.57412 7.8897 8.49884 8.03036 8.36485C8.17101 8.23085 8.25003 8.04911 8.25003 7.85961V0.71451C8.25003 0.52501 8.17101 0.343272 8.03036 0.209275C7.8897 0.0752785 7.69893 0 7.50001 0C7.3011 0 7.11033 0.0752785 6.96967 0.209275C6.82902 0.343272 6.75 0.52501 6.75 0.71451V7.85961C6.75 8.04911 6.82902 8.23085 6.96967 8.36485C7.11033 8.49884 7.3011 8.57412 7.50001 8.57412Z" fill="white"/>
<path d="M10.9427 1.50668C10.7657 1.41951 10.5596 1.4029 10.3697 1.46052C10.1798 1.51814 10.0217 1.64526 9.9302 1.81391C9.8387 1.98257 9.82128 2.17894 9.88176 2.35984C9.94224 2.54074 10.0757 2.69133 10.2527 2.7785C11.4478 3.36631 12.401 4.3196 12.9592 5.48537C13.5173 6.65113 13.6482 7.96175 13.3307 9.20687C13.0132 10.452 12.2658 11.5594 11.2085 12.3513C10.1511 13.1432 8.84515 13.5737 7.50016 13.5737C6.15517 13.5737 4.84918 13.1432 3.79182 12.3513C2.73447 11.5594 1.98706 10.452 1.66959 9.20687C1.35211 7.96175 1.48297 6.65113 2.04115 5.48537C2.59934 4.3196 3.55249 3.36631 4.7476 2.7785C4.83526 2.73534 4.91314 2.67615 4.97678 2.60432C5.04043 2.53248 5.08861 2.44941 5.11855 2.35984C5.1485 2.27027 5.15964 2.17596 5.15132 2.08229C5.14301 1.98862 5.11541 1.89742 5.07011 1.81391C5.0248 1.73041 4.96267 1.65622 4.88727 1.59558C4.81186 1.53494 4.72466 1.48905 4.63064 1.46052C4.53662 1.43199 4.43762 1.42138 4.33929 1.4293C4.24097 1.43722 4.14525 1.46351 4.05759 1.50668C2.56407 2.24175 1.37308 3.43351 0.675747 4.8907C-0.0215912 6.34789 -0.184842 7.98602 0.212193 9.54218C0.609228 11.0984 1.54353 12.4823 2.86515 13.472C4.18678 14.4617 5.8191 14.9997 7.50016 14.9997C9.18121 14.9997 10.8135 14.4617 12.1352 13.472C13.4568 12.4823 14.3911 11.0984 14.7881 9.54218C15.1852 7.98602 15.0219 6.34789 14.3246 4.8907C13.6272 3.43351 12.4362 2.24175 10.9427 1.50668Z" fill="white"/>
</svg>
