<svg width="15" height="14" viewBox="0 0 15 14" fill="none" xmlns="http://www.w3.org/2000/svg">
<path d="M10.9427 0.506767C10.7657 0.419597 10.5596 0.402995 10.3697 0.460614C10.1798 0.518232 10.0217 0.645351 9.9302 0.814006C9.8387 0.982661 9.82128 1.17904 9.88176 1.35993C9.94224 1.54083 10.0757 1.69142 10.2527 1.77859C11.4478 2.3664 12.401 3.31969 12.9592 4.48546C13.5173 5.65122 13.6482 6.96185 13.3307 8.20696C13.0132 9.45207 12.2658 10.5595 11.2085 11.3514C10.1511 12.1433 8.84515 12.5738 7.50016 12.5738C6.15517 12.5738 4.84918 12.1433 3.79182 11.3514C2.73447 10.5595 1.98706 9.45207 1.66959 8.20696C1.35211 6.96185 1.48297 5.65122 2.04115 4.48546C2.59934 3.31969 3.55249 2.3664 4.7476 1.77859C4.83526 1.73543 4.91314 1.67624 4.97678 1.60441C5.04043 1.53258 5.08861 1.4495 5.11855 1.35993C5.1485 1.27036 5.15964 1.17605 5.15132 1.08238C5.14301 0.988709 5.11541 0.897516 5.07011 0.814006C5.0248 0.730497 4.96267 0.656307 4.88727 0.595671C4.81186 0.535036 4.72466 0.489144 4.63064 0.460614C4.53662 0.432084 4.43762 0.421476 4.33929 0.429395C4.24097 0.437314 4.14525 0.463605 4.05759 0.506767C2.56407 1.24185 1.37308 2.43361 0.675747 3.89079C-0.0215912 5.34798 -0.184842 6.98611 0.212193 8.54228C0.609228 10.0984 1.54353 11.4824 2.86515 12.4721C4.18678 13.4618 5.8191 13.9998 7.50016 13.9998C9.18121 13.9998 10.8135 13.4618 12.1352 12.4721C13.4568 11.4824 14.3911 10.0984 14.7881 8.54228C15.1852 6.98611 15.0219 5.34798 14.3246 3.89079C13.6272 2.43361 12.4362 1.24185 10.9427 0.506767Z" fill="white"/>
</svg>
