<svg width="24" height="24" viewBox="0 0 24 24" fill="none" xmlns="http://www.w3.org/2000/svg">
<path d="M7.86899 0.309993L0.310993 7.86899C0.212608 7.96652 0.134515 8.08257 0.081221 8.21043C0.0279272 8.3383 0.000488281 8.47546 0.000488281 8.61399C0.000488281 8.75252 0.0279272 8.88968 0.081221 9.01755C0.134515 9.14542 0.212608 9.26147 0.310993 9.35899L14.641 23.69C14.7383 23.7884 14.8541 23.8666 14.9818 23.9199C15.1096 23.9733 15.2466 24.0008 15.385 24.0008C15.5234 24.0008 15.6604 23.9733 15.7881 23.9199C15.9159 23.8666 16.0317 23.7884 16.129 23.69L23.688 16.131C23.7864 16.0335 23.8645 15.9174 23.9178 15.7896C23.9711 15.6617 23.9985 15.5245 23.9985 15.386C23.9985 15.2475 23.9711 15.1103 23.9178 14.9824C23.8645 14.8546 23.7864 14.7385 23.688 14.641L9.35799 0.310993C9.26047 0.212608 9.14442 0.134515 9.01655 0.081221C8.88868 0.0279272 8.75152 0.000488281 8.61299 0.000488281C8.47446 0.000488281 8.3373 0.0279272 8.20943 0.081221C8.08156 0.134515 7.96552 0.212608 7.86799 0.310993L7.86899 0.309993ZM16.534 20.607C16.4002 20.7479 16.2395 20.8605 16.0613 20.9382C15.8832 21.0159 15.6913 21.057 15.497 21.0592C15.3027 21.0615 15.11 21.0247 14.9301 20.9511C14.7503 20.8775 14.587 20.7686 14.45 20.6308C14.313 20.493 14.2051 20.3291 14.1325 20.1488C14.06 19.9686 14.0243 19.7756 14.0277 19.5813C14.031 19.387 14.0733 19.1954 14.152 19.0177C14.2308 18.84 14.3443 18.68 14.486 18.547C14.7622 18.2915 15.1267 18.1531 15.5029 18.1609C15.8791 18.1687 16.2376 18.3221 16.5029 18.5889C16.7682 18.8557 16.9198 19.215 16.9256 19.5912C16.9314 19.9674 16.791 20.3312 16.534 20.606V20.607ZM13.763 17.843C13.6297 17.9856 13.4689 18.0998 13.2904 18.1789C13.1119 18.2579 12.9193 18.3001 12.7241 18.3029C12.5289 18.3057 12.3351 18.2691 12.1544 18.1953C11.9737 18.1215 11.8097 18.012 11.6723 17.8733C11.5349 17.7346 11.4269 17.5696 11.3548 17.3882C11.2826 17.2068 11.2478 17.0127 11.2525 16.8176C11.2571 16.6224 11.3011 16.4302 11.3818 16.2524C11.4624 16.0746 11.5782 15.915 11.722 15.783C11.9989 15.532 12.362 15.3975 12.7356 15.4076C13.1092 15.4177 13.4645 15.5715 13.7275 15.8371C13.9905 16.1026 14.1408 16.4594 14.1473 16.8331C14.1537 17.2068 14.0157 17.5685 13.762 17.843H13.763ZM10.993 15.073C10.8592 15.2139 10.6985 15.3265 10.5203 15.4042C10.3422 15.4819 10.1503 15.523 9.95604 15.5252C9.76174 15.5275 9.56897 15.4907 9.38913 15.4171C9.20929 15.3435 9.04605 15.2346 8.90905 15.0968C8.77205 14.959 8.66408 14.7951 8.59153 14.6148C8.51899 14.4346 8.48334 14.2416 8.48669 14.0473C8.49004 13.853 8.53232 13.6614 8.61105 13.4837C8.68977 13.306 8.80332 13.146 8.94499 13.013C9.22118 12.7575 9.58572 12.6191 9.9619 12.6269C10.3381 12.6347 10.6966 12.7881 10.9619 13.0549C11.2272 13.3217 11.3788 13.681 11.3846 14.0572C11.3904 14.4334 11.25 14.7972 10.993 15.072V15.073ZM8.22199 12.302C7.98359 12.5375 7.67097 12.6831 7.3373 12.7142C7.00364 12.7452 6.66952 12.6597 6.39176 12.4723C6.11401 12.2848 5.90976 12.0069 5.81377 11.6858C5.71777 11.3647 5.73593 11.0203 5.86518 10.7112C5.99443 10.402 6.22678 10.1471 6.52272 9.9899C6.81866 9.83268 7.15992 9.78282 7.48847 9.8488C7.81702 9.91478 8.11258 10.0925 8.32488 10.3518C8.53718 10.6111 8.65312 10.9359 8.65299 11.271V11.272C8.65264 11.4635 8.61448 11.6531 8.54069 11.8299C8.4669 12.0066 8.35893 12.1671 8.22299 12.302H8.22199ZM5.45799 9.53199C5.21959 9.76749 4.90697 9.91315 4.5733 9.94419C4.23964 9.97523 3.90552 9.88974 3.62776 9.70226C3.35001 9.51477 3.14577 9.23687 3.04977 8.91581C2.95377 8.59475 2.97194 8.25034 3.10118 7.94116C3.23043 7.63198 3.46278 7.37712 3.75872 7.2199C4.05466 7.06268 4.39592 7.01283 4.72447 7.0788C5.05302 7.14478 5.34858 7.32252 5.56088 7.5818C5.77318 7.84107 5.88912 8.16588 5.88899 8.50099V8.50199C5.88864 8.69353 5.85048 8.88311 5.77669 9.05986C5.7029 9.23662 5.59493 9.39706 5.45899 9.53199H5.45799ZM20.603 16.537C20.3648 16.7727 20.0523 16.9187 19.7187 16.9501C19.385 16.9814 19.0508 16.8962 18.7728 16.709C18.4949 16.5217 18.2904 16.244 18.1941 15.923C18.0978 15.602 18.1157 15.2576 18.2447 14.9483C18.3737 14.639 18.6059 14.3839 18.9017 14.2264C19.1975 14.069 19.5388 14.0188 19.8674 14.0846C20.196 14.1503 20.4917 14.3278 20.7042 14.587C20.9167 14.8461 21.0329 15.1709 21.033 15.506V15.508C21.0326 15.6995 20.9945 15.8891 20.9207 16.0659C20.8469 16.2426 20.7389 16.4031 20.603 16.538V16.537ZM17.833 13.766C17.5948 14.0017 17.2823 14.1477 16.9487 14.1791C16.615 14.2104 16.2808 14.1252 16.0028 13.938C15.7249 13.7507 15.5204 13.473 15.4241 13.152C15.3278 12.831 15.3457 12.4866 15.4747 12.1773C15.6037 11.868 15.8359 11.6129 16.1317 11.4554C16.4275 11.298 16.7688 11.2478 17.0974 11.3136C17.426 11.3793 17.7217 11.5568 17.9342 11.816C18.1467 12.0751 18.2629 12.3999 18.263 12.735V12.737C18.2626 12.9285 18.2245 13.1181 18.1507 13.2949C18.0769 13.4716 17.9689 13.6321 17.833 13.767V13.766ZM15.062 10.996C14.8238 11.2317 14.5113 11.3777 14.1777 11.409C13.844 11.4404 13.5098 11.3552 13.2318 11.168C12.9539 10.9807 12.7494 10.703 12.6531 10.382C12.5568 10.061 12.5747 9.71656 12.7037 9.40726C12.8327 9.09795 13.0649 8.84289 13.3607 8.68543C13.6565 8.52797 13.9978 8.47784 14.3264 8.54358C14.655 8.60931 14.9507 8.78684 15.1632 9.04598C15.3757 9.30512 15.4919 9.62987 15.492 9.96499V9.96699C15.4916 10.1585 15.4535 10.3481 15.3797 10.5249C15.3059 10.7016 15.1979 10.8621 15.062 10.997V10.996ZM12.298 8.23199C12.0596 8.46749 11.747 8.61315 11.4133 8.64419C11.0796 8.67523 10.7455 8.58974 10.4678 8.40226C10.19 8.21477 9.98576 7.93687 9.88976 7.61581C9.79377 7.29475 9.81193 6.95034 9.94118 6.64116C10.0704 6.33198 10.3028 6.07712 10.5987 5.9199C10.8947 5.76268 11.2359 5.71282 11.5645 5.7788C11.893 5.84478 12.1886 6.02252 12.4009 6.2818C12.6132 6.54108 12.7291 6.86588 12.729 7.20099V7.20199C12.7286 7.39353 12.6905 7.58311 12.6167 7.75986C12.5429 7.93662 12.4349 8.09706 12.299 8.23199H12.298ZM9.52799 5.46199C9.28959 5.69749 8.97697 5.84315 8.6433 5.87419C8.30964 5.90523 7.97552 5.81974 7.69776 5.63226C7.42001 5.44477 7.21576 5.16687 7.11976 4.84581C7.02377 4.52475 7.04193 4.18034 7.17118 3.87116C7.30043 3.56198 7.53278 3.30712 7.82872 3.1499C8.12466 2.99268 8.46592 2.94283 8.79447 3.0088C9.12302 3.07478 9.41858 3.25252 9.63088 3.5118C9.84318 3.77108 9.95912 4.09588 9.95899 4.43099V4.43199C9.95864 4.62353 9.92048 4.81311 9.84669 4.98986C9.7729 5.16662 9.66493 5.32706 9.52899 5.46199H9.52799Z" fill="#463157"/>
</svg>
