<svg width="18" height="18" viewBox="0 0 18 18" fill="none" xmlns="http://www.w3.org/2000/svg">
<path d="M9.67923 9.16452L3.40257 10.2112C3.3304 10.2232 3.26269 10.2541 3.20622 10.3006C3.14975 10.3471 3.10653 10.4077 3.0809 10.4762L0.916733 16.2737C0.710067 16.807 1.26757 17.3154 1.77923 17.0595L16.7792 9.55952C16.8831 9.50764 16.9705 9.42785 17.0316 9.32908C17.0927 9.23031 17.125 9.11648 17.125 9.00035C17.125 8.88423 17.0927 8.7704 17.0316 8.67163C16.9705 8.57286 16.8831 8.49307 16.7792 8.44119L1.77923 0.941188C1.26757 0.685355 0.710067 1.19452 0.916733 1.72702L3.08173 7.52452C3.10725 7.5932 3.15041 7.65394 3.20689 7.70061C3.26336 7.74728 3.33115 7.77824 3.4034 7.79035L9.68007 8.83619C9.71869 8.84295 9.7537 8.86312 9.77892 8.89315C9.80415 8.92318 9.81797 8.96114 9.81797 9.00035C9.81797 9.03957 9.80415 9.07753 9.77892 9.10756C9.7537 9.13758 9.71869 9.15775 9.68007 9.16452H9.67923Z" fill="black"/>
</svg>
